<svg width="16" height="16" fill="none" xmlns="http://www.w3.org/2000/svg"><path fill-rule="evenodd" clip-rule="evenodd" d="M5.2 1.33h5.6c2.05 0 3.2 1.19 3.2 3.22v6.89c0 2.07-1.15 3.23-3.2 3.23H5.2c-2.02 0-3.2-1.16-3.2-3.23V4.55c0-2.03 1.18-3.22 3.2-3.22Zm.19 3.11h1.99c.29 0 .52.23.52.51 0 .3-.23.53-.52.53h-2a.52.52 0 0 1 0-1.04Zm0 4.05h5.22a.52.52 0 0 0 0-1.04H5.4a.52.52 0 0 0 0 1.04Zm0 3.05h5.22a.52.52 0 0 0 .47-.52c0-.27-.2-.5-.47-.53H5.4a.53.53 0 0 0-.5.8c.1.18.3.28.5.25Z" fill="#69BB10"/></svg>