<svg width="16" height="16" fill="none" xmlns="http://www.w3.org/2000/svg"><path d="M10.76 1.33H4.98c-2.26 0-3.78 1.59-3.78 3.95v5.45c0 2.35 1.52 3.94 3.78 3.94h5.78c2.26 0 3.77-1.59 3.77-3.94V5.28c0-2.36-1.51-3.95-3.77-3.95Z" fill="#5891E2"/><path fill-rule="evenodd" clip-rule="evenodd" d="M5.37 11.33c.24 0 .45-.09.6-.25l4.98-4.97a.84.84 0 1 0-1.19-1.2L4.78 9.88a.85.85 0 0 0 .6 1.45Zm4.14-.85a.85.85 0 1 0 1.69.01.85.85 0 0 0-1.7 0Z" fill="#FEFEFE"/><path d="M5.37 4.67c.46 0 .83.37.83.83 0 .46-.37.83-.83.83a.84.84 0 0 1-.84-.83c0-.46.38-.83.84-.83Z" fill="#5891E2"/><path d="M5.38 4.67a.84.84 0 1 1 0 1.7.85.85 0 0 1-.85-.86c0-.47.39-.84.85-.84Z" fill="#FEFEFE"/></svg>